# xmcd
#
# Track frame offsets:
#	183
#	8685
#	17925
#	27730
#	39718
#	51728
#	68303
#	81230
#	92958
#	102260
#	115173
#	134888
#	146620
#	156288
#	177013
#
# Disc length: 2556 seconds
#
# Revision: 1
# Processed by: cddbd v1.4PL0 Copyright (c) Steve Scherf et al.
# Submitted via: audiograbber 1.80
#
DISCID=d409fa0f
DTITLE=Elvis Presley - Elvis sings the Blues
DYEAR=1900
DGENRE=
TTITLE0=When It Rains It Really Pours
TTITLE1=New Orleans
TTITLE2=It Feels So Right
TTITLE3=A Mess Of Blues
TTITLE4=Like A Baby
TTITLE5=Reconsider Baby
TTITLE6=I Feel So Bad
TTITLE7=Give Me The Right
TTITLE8=Beach Boys Blues
TTITLE9=Big Boss Man
TTITLE10=Stranger In My Own Home Town
TTITLE11=Power Of My Love
TTITLE12=My Babe
TTITLE13=Got My Mojo Working
TTITLE14=Steamroller Blues (Live)
EXTD=
EXTT0=
EXTT1=
EXTT2=
EXTT3=
EXTT4=
EXTT5=
EXTT6=
EXTT7=
EXTT8=
EXTT9=
EXTT10=
EXTT11=
EXTT12=
EXTT13=
EXTT14=
PLAYORDER=
